<?xml version="1.0" encoding="utf-8"?>
<!-- Generator: Adobe Illustrator 24.0.1, SVG Export Plug-In . SVG Version: 6.00 Build 0)  -->
<svg version="1.1"
	 id="svg3025" inkscape:version="0.48.3.1 r9886" sodipodi:docname="external_link_font_awesome.svg" xmlns:cc="http://creativecommons.org/ns#" xmlns:dc="http://purl.org/dc/elements/1.1/" xmlns:inkscape="http://www.inkscape.org/namespaces/inkscape" xmlns:rdf="http://www.w3.org/1999/02/22-rdf-syntax-ns#" xmlns:sodipodi="http://sodipodi.sourceforge.net/DTD/sodipodi-0.dtd" xmlns:svg="http://www.w3.org/2000/svg"
	 xmlns="http://www.w3.org/2000/svg" xmlns:xlink="http://www.w3.org/1999/xlink" x="0px" y="0px" viewBox="0 0 595.3 841.9"
	 style="enable-background:new 0 0 595.3 841.9;" xml:space="preserve">
<style type="text/css">
	.st0{fill:#FFFFFF;}
</style>
<sodipodi:namedview  bordercolor="#f2f2f2" borderopacity="1" gridtolerance="10" guidetolerance="10" id="namedview3031" inkscape:current-layer="svg3025" inkscape:cx="896" inkscape:cy="896" inkscape:pageopacity="0" inkscape:pageshadow="2" inkscape:window-height="480" inkscape:window-maximized="0" inkscape:window-width="640" inkscape:window-x="0" inkscape:window-y="25" inkscape:zoom="0.13169643" objecttolerance="10" pagecolor="#ffffff" showgrid="false">
	</sodipodi:namedview>
<g id="g3027" transform="matrix(1,0,0,-1,30.372881,1426.9492)">
	<path id="path3029" inkscape:connector-curvature="0" class="st0" d="M432.5,957.8v-103c0-25.5-9.1-47.4-27.2-65.5
		s-40-27.2-65.5-27.2H72.1c-25.5,0-47.4,9.1-65.5,27.2s-27.2,40-27.2,65.5v267.7c0,25.5,9.1,47.4,27.2,65.5s40,27.2,65.5,27.2h226.5
		c3,0,5.5-1,7.4-2.9c1.9-1.9,2.9-4.4,2.9-7.4v-20.6c0-3-1-5.5-2.9-7.4c-1.9-1.9-4.4-2.9-7.4-2.9H72.1c-14.2,0-26.3-5-36.4-15.1
		s-15.1-22.2-15.1-36.4V854.8c0-14.2,5-26.3,15.1-36.4c10.1-10.1,22.2-15.1,36.4-15.1h267.7c14.2,0,26.3,5,36.4,15.1
		c10.1,10.1,15.1,22.2,15.1,36.4v103c0,3,1,5.5,2.9,7.4c1.9,1.9,4.4,2.9,7.4,2.9h20.6c3,0,5.5-1,7.4-2.9
		C431.5,963.2,432.5,960.8,432.5,957.8z M556,1235.8V1071c0-5.6-2-10.4-6.1-14.5c-4.1-4.1-8.9-6.1-14.5-6.1c-5.6,0-10.4,2-14.5,6.1
		l-56.6,56.6L254.5,903.4c-2.1-2.1-4.6-3.2-7.4-3.2s-5.3,1.1-7.4,3.2L203,940.1c-2.1,2.1-3.2,4.6-3.2,7.4s1.1,5.3,3.2,7.4
		l209.8,209.8l-56.6,56.6c-4.1,4.1-6.1,8.9-6.1,14.5s2,10.4,6.1,14.5c4.1,4.1,8.9,6.1,14.5,6.1h164.7c5.6,0,10.4-2,14.5-6.1
		C554,1246.2,556,1241.3,556,1235.8z"/>
</g>
</svg>
