<svg width="146" height="36" viewBox="0 0 146 36" xmlns="http://www.w3.org/2000/svg" xmlns:xlink="http://www.w3.org/1999/xlink"><title>New_Logo</title><defs><path id="a" d="M145.116 21.266V.02H0v21.246z"/><path id="c" d="M.569 9.286h9.164V.284H.569z"/></defs><g fill="none" fill-rule="evenodd"><g transform="translate(0 8.782)"><mask id="b" fill="#fff"><use xlink:href="#a"/></mask><path d="M2.632 13.443V.02H0v15.738h7.575v-2.315H2.632zM37.68 9.845c-1.946-.741-2.93-.853-2.93-1.753 0-.742.687-1.147 1.534-1.147 1.212 0 1.717.63 1.717 1.62h2.426c0-2.047-1.808-3.554-4.074-3.554-2.176 0-4.006 1.057-4.006 3.036 0 1.822 1.052 2.36 2.54 2.922 2.244.855 3.32.923 3.32 1.912 0 .899-.756 1.214-1.74 1.214-1.19 0-2.06-.495-2.06-1.866H31.98c0 2.473 2.06 3.8 4.348 3.8 2.335 0 4.258-1.012 4.258-3.193 0-1.91-1.42-2.429-2.907-2.99zM48.781 13.6c-.251.045-.87.09-1.259.09-.984 0-1.557-.224-1.557-2.046V7.328h2.45V5.281h-2.45v-3.17H43.47v3.17h-1.808v2.047h1.808v4.878c0 3.53 2.244 3.687 3.456 3.687.733 0 1.465-.066 1.855-.135V13.6zm18.082 2.158V9.125c0-1.955-.641-4.114-3.845-4.114-1.511 0-2.77.81-3.274 1.867-.457-1.034-1.42-1.867-3.364-1.867-1.398 0-2.519.765-2.975 1.732V5.281H50.91v10.477h2.495V10.43c0-2.496 1.03-3.26 2.288-3.26 1.396 0 1.945 1.035 1.945 2.699v5.89h2.495V10.43c0-2.496.985-3.26 2.243-3.26 1.396 0 1.992 1.057 1.992 2.72v5.868h2.495zm7.987 5.508c1.648 0 2.93-.358 3.823-1.123.87-.765 1.327-1.889 1.327-3.44V5.281h-2.495v5.42c0 1.798-.823 3.17-2.564 3.17-1.784 0-2.311-1.372-2.311-3.17V5.28h-2.495v6.228c0 1.439.16 2.316.687 3.103.594.876 1.671 1.416 3.204 1.416 1.58 0 2.816-.606 3.48-1.731v2.406c0 1.956-1.076 2.495-2.609 2.495-1.306 0-2.404-.74-2.519-2.248h-2.517c.022 1.44.573 2.518 1.442 3.238.892.72 2.129 1.078 3.547 1.078zm8.125-7.171c0 .988.824 1.798 1.832 1.798 1.03 0 1.853-.81 1.853-1.798 0-1.01-.823-1.82-1.853-1.82-1.008 0-1.832.81-1.832 1.82zm6.73 1.663h2.494V10.34c0-1.798.824-3.17 2.563-3.17 1.786 0 2.313 1.372 2.313 3.17v5.418h2.495V9.53c0-1.438-.16-2.315-.687-3.102-.595-.877-1.672-1.417-3.206-1.417-1.577 0-2.814.608-3.478 1.732V5.281h-2.495v10.477zm20.988-10.477v1.417c-.663-1.057-2.06-1.687-3.297-1.687-3.25 0-5.47 2.54-5.47 5.51 0 2.967 2.22 5.507 5.47 5.507 1.236 0 2.634-.63 3.297-1.685v1.415h2.494V5.281h-2.494zm-3.159 8.567c-1.877 0-3.114-1.529-3.114-3.328 0-1.798 1.237-3.327 3.114-3.327 1.922 0 3.159 1.529 3.159 3.327 0 1.8-1.237 3.328-3.159 3.328zm24.948 1.91V9.125c0-1.955-.641-4.114-3.845-4.114-1.511 0-2.77.81-3.272 1.867-.46-1.034-1.421-1.867-3.366-1.867-1.396 0-2.517.765-2.975 1.732V5.281h-2.495v10.477h2.495V10.43c0-2.496 1.03-3.26 2.288-3.26 1.397 0 1.946 1.035 1.946 2.699v5.89h2.495V10.43c0-2.496.984-3.26 2.242-3.26 1.398 0 1.992 1.057 1.992 2.72v5.868h2.495zm7.622-8.903c1.511 0 2.585.99 2.585 2.585h-5.31c0-1.708 1.19-2.585 2.725-2.585zm4.898 4.406c.114-.674.114-1.169.114-1.527 0-2.676-2.174-4.723-4.943-4.723-3.366 0-5.265 2.362-5.265 5.51 0 3.079 1.74 5.507 5.333 5.507 2.723 0 4.486-1.618 4.784-3.417h-2.518c-.298.742-.848 1.372-2.266 1.372-2.083 0-2.747-1.214-2.861-2.722h7.622z" fill="#587077" mask="url(#b)"/></g><path d="M19.334 27.882c5.375 0 9.732-4.28 9.732-9.559 0-5.28-4.357-9.56-9.732-9.56-5.375 0-9.733 4.28-9.733 9.56s4.358 9.56 9.733 9.56m-6.488-9.56c0-3.52 2.904-6.373 6.488-6.373 3.583 0 6.488 2.853 6.488 6.373 0 3.519-2.905 6.372-6.488 6.372-3.584 0-6.488-2.853-6.488-6.372" fill="#15AF97"/><path d="M19.334 20.712c1.344 0 2.434-1.07 2.434-2.39 0-1.319-1.09-2.39-2.434-2.39s-2.434 1.071-2.434 2.39c0 1.32 1.09 2.39 2.434 2.39" fill="#587077"/><g transform="translate(27.375 26.496)"><mask id="d" fill="#fff"><use xlink:href="#c"/></mask><path d="M9.163 6.022L3.773.727l-.012.01A1.967 1.967 0 0 0 1.134.84c-.72.709-.75 1.83-.103 2.58l-.012.012 5.39 5.295a1.971 1.971 0 0 0 2.754 0c.76-.747.76-1.957 0-2.704" fill="#00A4DF" mask="url(#d)"/></g><path d="M20.307 5.417V.956A.964.964 0 0 0 19.333 0a.963.963 0 0 0-.972.956v4.461c0 .527.435.957.972.957.539 0 .974-.43.974-.957" fill="#EE765E"/><path d="M10.732 8.52L7.52 5.367a.985.985 0 0 0-1.375 0 .944.944 0 0 0 0 1.352l3.21 3.156a.986.986 0 0 0 1.377-.002.945.945 0 0 0 0-1.351" fill="#9E6BAA"/><path d="M29.312 9.873l3.212-3.155a.945.945 0 0 0 0-1.352.984.984 0 0 0-1.376 0L27.936 8.52a.945.945 0 0 0 0 1.353.984.984 0 0 0 1.376 0" fill="#FFDC00"/></g></svg>