
<svg version="1.1" xmlns="http://www.w3.org/2000/svg" xmlns:xlink="http://www.w3.org/1999/xlink" x="0px" y="0px" viewBox="0 0 798.3 114" style="enable-background:new 0 0 798.3 114;" xml:space="preserve">
<style type="text/css">
	.st0{fill:transparent;stroke:#fff;stroke-width:2px;stroke-linecap:round;stroke-linejoin:round;stroke-miterlimit:10;}

	svg {

		max-width: 250px;
		margin: 0 auto;
		<!-- background: #000; -->
	}

	@keyframes offset {

		100% {

			stroke-dashoffset: 0;
		}
	}

	@keyframes fill {

		100% {

			fill: #fff;
			stroke: transparent;
		}
	}

	.sub_one path, .sub_one polygon {

		stroke-dasharray: 550;
		stroke-dashoffset: 550;
		animation: offset 3s .5s ease forwards, fill 1s 2.5s linear forwards;
	}

	@keyframes fade_in {

		100% {

			opacity: 1;
		}
	}

	.sub_two path:nth-of-type(1) {

		opacity: 0;
		animation: fade_in 1s 3s linear forwards;
	}

	.sub_two path:nth-of-type(2) {

		opacity: 0;
		animation: fade_in 1s 3.05s linear forwards;
	}

	.sub_two path:nth-of-type(3) {

		opacity: 0;
		animation: fade_in 1s 3.1s linear forwards;
	}

	.sub_two path:nth-of-type(4) {

		opacity: 0;
		animation: fade_in 1s 3.15s linear forwards;
	}

	.sub_two path:nth-of-type(5) {

		opacity: 0;
		animation: fade_in 1s 3.2s linear forwards;
	}

	.sub_two path:nth-of-type(6) {

		opacity: 0;
		animation: fade_in 1s 3.25s linear forwards;
	}

	.sub_two path:nth-of-type(7) {

		opacity: 0;
		animation: fade_in 1s 3.3s linear forwards;
	}

	.sub_two path:nth-of-type(8) {

		opacity: 0;
		animation: fade_in 1s 3.35s linear forwards;
	}

	.sub_two path:nth-of-type(9) {

		opacity: 0;
		animation: fade_in 1s 3.4s linear forwards;
	}

	.sub_two path:nth-of-type(10) {

		opacity: 0;
		animation: fade_in 1s 3.45s linear forwards;
	}

	.sub_two path:nth-of-type(11) {

		opacity: 0;
		animation: fade_in 1s 3.5s linear forwards;
	}

	.sub_two path:nth-of-type(12) {

		opacity: 0;
		animation: fade_in 1s 3.55s linear forwards;
	}

	.sub_two path:nth-of-type(13) {

		opacity: 0;
		animation: fade_in 1s 3.6s linear forwards;
	}

	.sub_two path:nth-of-type(14) {

		opacity: 0;
		animation: fade_in 1s 3.65s linear forwards;
	}

	.sub_two path:nth-of-type(15) {

		opacity: 0;
		animation: fade_in 1s 3.7s linear forwards;
	}

	.sub_two path:nth-of-type(16) {

		opacity: 0;
		animation: fade_in 1s 3.75s linear forwards;
	}
<!-- 
	@keyframes zoom_in {

		100% {

			transform: scale(1);
		}
	}

	.feat {

		transform-origin: 400px 57px;
		transform: scale(.8);
		animation: zoom_in 5s ease-in forwards;
	} -->
</style>
<g class="feat">
  <g class="sub_one">
	<path class="st0" d="M61.2,1.1H1V47h60.2c12.7,0.7,23.5-9,24.2-21.7c0.7-12.7-9-23.5-21.7-24.2C62.8,1,62,1,61.2,1.1z M61.2,37.1
		H11V11h50.1c7.2,0,13,5.8,13,13S68.4,37.1,61.2,37.1L61.2,37.1z"/>
	<path class="st0" d="M215.8,25.2c0.1,12.1,10,21.9,22.1,21.9h56.3v-10h-56.3c-6.6,0-12-5.3-12.1-11.9c0-7.9,6.4-14.2,14.3-14.2
		c0,0,0,0,0,0h54V1.1h-54C226.8,1,215.9,11.8,215.8,25.2C215.8,25.2,215.8,25.2,215.8,25.2z"/>
	<path class="st0" d="M454.7,1.1H344.1c-12.7-0.7-23.5,9-24.2,21.7c-0.7,12.7,9,23.5,21.7,24.2c0.8,0,1.7,0,2.5,0h110.5
		c12.7,0.7,23.5-9,24.2-21.7s-9-23.5-21.7-24.2C456.4,1,455.5,1,454.7,1.1z M454.7,37.1H344.1c-7.2,0-13-5.8-13-13s5.8-13,13-13
		h110.5c7.2,0,13,5.8,13,13S461.9,37.1,454.7,37.1z"/>
	<path class="st0" d="M586.3,29v-5c0-13.5-9.3-23-22.6-23h-59v46.2h10V29h47l18.1,18.8h13.8L575.5,29H586.3z M514.7,11h49
		c6,0,10.3,4,11.9,9.1h-60.9V11z"/>
	<path class="st0" d="M188.6,20h-67.3c2.1-5.5,7.4-9,13.3-9h54V1.1h-54c-13.4-0.1-24.3,10.7-24.3,24.1c0.1,12.1,10,21.9,22.1,21.9
		h56.3v-10h-56.3c-4.9,0-10-4.6-11.1-8.1h67.3L188.6,20z"/>
	<polygon class="st0" points="614.5,11 648.4,11 648.4,47.1 658.5,47.1 658.5,11 692.4,11 692.4,1.1 614.5,1.1 	"/>
	<path class="st0" d="M797.3,20.1H730c2.1-5.5,7.4-9,13.3-9h54V1.2h-54c-13.3-0.1-24.2,10.7-24.3,24c0.1,12.1,10,21.9,22.1,21.9
		h56.3v-9.9H741c-4.9,0-10-4.6-11.1-8.1h67.3V20.1z"/>
  </g>
  <g class="sub_two">
    <path fill="#fff" d="M1,113.8V92.4h19.9v3.2H4.3v5.9h13.3v3.2H4.3v9.1L1,113.8z"/>
    <path fill="#fff" d="M52.9,114c-1,0-2-0.4-2.8-1.1c-0.8-0.7-1.2-1.7-1.2-2.7V92.5h3.3v17.1c0,0.3,0,0.6,0.2,0.9c0.3,0.2,0.6,0.3,0.9,0.2h12.9
	c0.3,0,0.6,0,0.9-0.2c0.2-0.3,0.2-0.6,0.2-0.9V92.5h3.3v17.6c0,1-0.4,2-1.2,2.7c-0.7,0.7-1.7,1.1-2.8,1.1H52.9z"/>
    <path fill="#fff" d="M107.2,114V95.8h-9.2v-3.2h21.7v3.2h-9.2V114L107.2,114z"/>
    <path fill="#fff" d="M150.7,114c-1,0-2-0.4-2.8-1.1c-0.7-0.7-1.2-1.7-1.1-2.7V92.5h3.3v17.1c0,0.3,0,0.6,0.2,0.9c0.3,0.2,0.6,0.3,0.9,0.2h12.9
	c0.3,0,0.6,0,0.9-0.2c0.2-0.3,0.2-0.6,0.2-0.9V92.5h3.3v17.6c0,1-0.4,2-1.2,2.7c-0.7,0.7-1.7,1.1-2.8,1.1H150.7z"/>
    <path fill="#fff" d="M195.7,114V92.6h17.7c1,0,2.1,0.4,2.8,1.2c0.7,0.7,1.2,1.7,1.1,2.7v6c0,1-0.4,2-1.1,2.7c-0.7,0.7-1.7,1.2-2.8,1.1h-2.2
	l6,7.1v0.6h-3.8l-6.5-7.6h-8.1v7.6L195.7,114z M200.1,103.1H213c0.3,0,0.6,0,0.9-0.2c0.2-0.3,0.2-0.6,0.2-0.9v-5.1
	c0-0.3,0-0.6-0.2-0.9c-0.3-0.2-0.6-0.3-0.9-0.2h-12.9c-0.3,0-0.6,0-0.9,0.2c-0.2,0.3-0.3,0.6-0.2,0.9v5.1c0,0.3,0,0.6,0.2,0.9
	C199.4,103,199.8,103.1,200.1,103.1z"/>
    <path fill="#fff" d="M245.5,114V92.5h19.9v3.2h-16.6v5.9h13.4v3.2h-13.4v5.9h16.6v3.2H245.5z"/>
    <path fill="#fff" d="M344.9,114V92.5h3.3V114L344.9,114z"/>
    <path fill="#fff" d="M384.6,114V92.5h3.9l14.5,17.1V92.5h3.3V114h-3.9l-14.5-17.1V114L384.6,114z"/>
    <path fill="#fff" d="M433.5,114V92.5h17.7c1,0,2.1,0.4,2.8,1.1c0.8,0.7,1.2,1.7,1.2,2.7v13.7c0,1-0.4,2-1.2,2.7c-0.7,0.7-1.7,1.2-2.8,1.1
	L433.5,114z M437.8,110.8h12.9c0.5,0.2,1-0.1,1.1-0.6c0.1-0.2,0.1-0.4,0-0.5V96.8c0.1-0.5-0.1-1-0.6-1.1c-0.2-0.1-0.4-0.1-0.5,0
	h-12.9c-0.3,0-0.6,0-0.9,0.2c-0.2,0.3-0.3,0.6-0.2,0.9v12.8c0,0.3,0,0.6,0.2,0.9C437.2,110.7,437.5,110.8,437.8,110.8z"/>
    <path fill="#fff" d="M486.3,114c-1,0-2-0.4-2.8-1.1c-0.7-0.7-1.2-1.7-1.1-2.7V92.5h3.3v17.1c0,0.3,0,0.6,0.2,0.9c0.3,0.2,0.6,0.3,0.9,0.2h12.9
	c0.3,0,0.6,0,0.9-0.2c0.2-0.3,0.2-0.6,0.2-0.9V92.5h3.3v17.6c0,1-0.4,2-1.2,2.7c-0.7,0.7-1.7,1.1-2.8,1.1H486.3z"/>
    <path fill="#fff" d="M535.2,114c-1,0-2-0.4-2.8-1.1c-0.8-0.7-1.2-1.7-1.2-2.7v-1.3h3.3v0.8c0,0.3,0,0.6,0.2,0.9c0.3,0.2,0.6,0.3,0.9,0.2h13
	c0.3,0,0.6,0,0.9-0.2c0.2-0.3,0.2-0.6,0.2-0.9V106c0.2-0.4-0.1-0.9-0.5-1.1c-0.2-0.1-0.4-0.1-0.6,0h-13.4c-1,0-2-0.4-2.8-1.1
	c-0.7-0.7-1.2-1.7-1.2-2.7v-4.6c0-1,0.4-2,1.2-2.7c0.7-0.7,1.7-1.1,2.8-1.1H549c1,0,2,0.4,2.8,1.1c0.7,0.7,1.2,1.7,1.1,2.7v1.3h-3.3
	v-0.8c0-0.3,0-0.6-0.2-0.9c-0.3-0.2-0.6-0.3-0.9-0.2h-12.9c-0.3,0-0.6,0-0.9,0.2c-0.2,0.3-0.3,0.6-0.2,0.9v3.7c0,0.3,0,0.6,0.2,0.9
	c0.3,0.2,0.6,0.2,0.9,0.2H549c1,0,2,0.4,2.8,1.1c0.7,0.7,1.2,1.7,1.1,2.7v4.6c0,1-0.4,2-1.1,2.7c-0.7,0.7-1.7,1.2-2.8,1.1H535.2z"/>
    <path fill="#fff" d="M589.4,114V95.8h-9.2v-3.2h21.7v3.2h-9.2V114L589.4,114z"/>
    <path fill="#fff" d="M629.1,114V92.6h17.7c1,0,2,0.4,2.8,1.2c0.8,0.7,1.2,1.7,1.2,2.7v6c0,1-0.4,2-1.2,2.7c-0.7,0.7-1.7,1.2-2.8,1.1h-2.2l6,7.1
	v0.6h-3.8l-6.5-7.6h-8.1v7.6L629.1,114z M633.4,103.1h12.9c0.3,0,0.6,0,0.9-0.2c0.2-0.3,0.2-0.6,0.2-0.9v-5.1c0-0.3,0-0.6-0.2-0.9
	c-0.3-0.2-0.6-0.3-0.9-0.2h-12.9c-0.3,0-0.6,0-0.9,0.2c-0.2,0.3-0.3,0.6-0.2,0.9v5.1c0,0.3,0,0.6,0.2,0.9
	C632.8,103,633.1,103.1,633.4,103.1L633.4,103.1z"/>
    <path fill="#fff" d="M687.2,114V92.5h3.3V114L687.2,114z"/>
    <path fill="#fff" d="M727.8,114V92.5h19.9v3.2h-16.6v5.9h13.3v3.2h-13.3v5.9h16.6v3.2H727.8z"/>
    <path fill="#fff" d="M779.7,114c-1,0-2-0.4-2.8-1.1c-0.7-0.7-1.2-1.7-1.1-2.7v-1.3h3.3v0.8c0,0.3,0,0.6,0.2,0.9c0.3,0.2,0.6,0.3,0.9,0.2h13
	c0.3,0,0.6,0,0.9-0.2c0.2-0.3,0.3-0.6,0.2-0.9V106c0-0.3,0-0.6-0.2-0.9c-0.3-0.2-0.6-0.2-0.9-0.2h-13.4c-1,0-2-0.4-2.8-1.1
	c-0.7-0.7-1.2-1.7-1.1-2.7v-4.6c0-1,0.4-2,1.1-2.7c0.7-0.7,1.7-1.1,2.8-1.1h13.8c1,0,2,0.4,2.8,1.1c0.7,0.7,1.2,1.7,1.2,2.7v1.3
	h-3.3v-0.8c0-0.3,0-0.6-0.2-0.9c-0.3-0.2-0.6-0.3-0.9-0.2h-12.9c-0.3,0-0.6,0-0.9,0.2c-0.2,0.3-0.3,0.6-0.2,0.9v3.7
	c0,0.5,0.1,0.8,0.2,0.9c0.3,0.2,0.6,0.2,0.9,0.2h13.4c1,0,2,0.4,2.8,1.1c0.7,0.7,1.2,1.7,1.2,2.7v4.6c0,1-0.4,2-1.2,2.7
	c-0.7,0.7-1.7,1.2-2.8,1.1H779.7z"/>
  </g>
</g>
</svg>